<mxfile host="app.diagrams.net" modified="2024-04-02T21:35:45.888Z" agent="Mozilla/5.0 (Windows NT 10.0; Win64; x64) AppleWebKit/537.36 (KHTML, like Gecko) Chrome/123.0.0.0 Safari/537.36" version="24.2.1" etag="g9MrLlAlavnURAwkrE3p" type="github">
  <diagram name="Page-1" id="fYczuq2yGFk1jIJjfgoH">
    <mxGraphModel>
      <root>
        <mxCell id="0" />
        <mxCell id="1" parent="0" />
      </root>
    </mxGraphModel>
  </diagram>
</mxfile>
